<?xml version="1.0" standalone="no"?>
<!DOCTYPE svg PUBLIC "-//W3C//DTD SVG 20010904//EN"
 "http://www.w3.org/TR/2001/REC-SVG-20010904/DTD/svg10.dtd">
<svg version="1.0" xmlns="http://www.w3.org/2000/svg"
 width="1250.000000pt" height="1250.000000pt" viewBox="0 0 1250.000000 1250.000000"
 preserveAspectRatio="xMidYMid meet">
<metadata>
Created by potrace 1.14, written by Peter Selinger 2001-2017
</metadata>
<g transform="translate(0.000000,1250.000000) scale(0.100000,-0.100000)"
fill="#000000" stroke="none">
<path d="M6110 11913 c-79 -136 -183 -315 -231 -398 -48 -82 -96 -166 -107
-185 -11 -19 -46 -80 -77 -135 -32 -55 -81 -140 -110 -190 -135 -234 -322
-558 -366 -633 -27 -45 -49 -85 -49 -88 0 -3 -9 -19 -21 -35 -14 -21 -17 -29
-7 -30 7 0 158 -1 336 -1 286 -1 322 -3 323 -17 1 -20 1 -864 0 -873 -1 -3
-13 -13 -28 -21 -24 -11 -661 -381 -1603 -929 -118 -69 -235 -136 -260 -150
-25 -14 -94 -54 -155 -90 -97 -58 -1247 -727 -1430 -832 l-71 -41 2 -890 c2
-490 4 -1402 6 -2028 l3 -1137 -83 -50 c-46 -28 -85 -50 -86 -50 -2 0 -43 -24
-92 -53 -49 -29 -96 -56 -104 -60 -8 -4 -28 -15 -45 -26 -60 -36 -397 -231
-400 -231 -2 0 -20 30 -42 68 -21 37 -43 76 -50 87 -7 11 -15 27 -19 35 -4 8
-26 44 -47 80 -22 36 -49 81 -59 100 -11 19 -43 74 -70 123 l-51 88 -68 -117
c-38 -64 -69 -118 -69 -119 0 -1 -31 -56 -69 -121 -37 -66 -173 -301 -301
-524 -278 -485 -279 -486 -375 -655 -13 -22 -71 -123 -129 -224 -58 -101 -106
-186 -106 -187 0 -6 2229 2 2235 7 2 3 -70 133 -160 288 -91 156 -165 285
-165 287 0 3 134 84 217 130 23 13 93 54 155 90 62 37 172 100 243 142 72 41
135 78 141 83 6 5 38 -8 78 -31 38 -22 70 -40 71 -40 2 0 39 -21 82 -46 43
-26 98 -58 123 -72 44 -25 1247 -715 1650 -947 113 -65 342 -197 510 -293 168
-96 379 -218 470 -270 91 -52 181 -104 200 -115 207 -116 339 -192 360 -207
53 -36 57 -35 255 80 103 61 190 110 192 110 4 0 81 47 129 78 10 6 26 15 34
19 8 4 74 41 145 83 72 42 177 104 235 137 58 34 215 125 350 203 135 79 265
154 290 168 25 14 92 53 150 87 58 34 206 121 330 192 280 162 245 142 521
303 127 74 248 144 268 155 20 11 90 52 156 91 66 39 147 86 180 105 33 19 68
39 77 44 9 6 68 39 130 74 62 36 125 72 139 82 25 17 27 17 70 -8 24 -14 62
-35 84 -48 122 -68 631 -367 638 -374 6 -6 -126 -247 -193 -351 -5 -8 -28 -49
-51 -90 -23 -41 -51 -88 -61 -103 -11 -16 -17 -31 -14 -34 6 -7 2236 -15 2236
-9 0 2 -29 53 -64 114 -36 61 -76 131 -89 154 -13 24 -104 181 -200 350 -97
168 -185 321 -195 340 -11 18 -79 137 -152 263 -73 127 -144 250 -158 275 -46
81 -255 445 -257 448 -2 3 -31 -46 -93 -158 -14 -25 -32 -56 -42 -70 -9 -14
-58 -98 -109 -187 l-93 -162 -32 16 c-29 15 -302 173 -369 214 -18 10 -39 22
-47 26 -8 4 -58 32 -110 63 -52 31 -125 74 -162 95 l-68 39 -1 541 c0 452 -7
3062 -9 3435 l0 115 -103 59 c-85 50 -622 359 -722 416 -16 9 -154 88 -305
175 -151 87 -291 167 -310 178 -19 11 -323 185 -675 387 -352 202 -656 377
-675 388 -33 18 -303 174 -621 356 l-136 79 0 447 -1 447 322 1 c402 0 362 -2
344 20 -13 15 -55 87 -133 226 -15 28 -41 73 -58 100 -16 28 -37 65 -47 81
-52 91 -480 831 -517 893 -24 41 -43 75 -43 77 0 2 -21 39 -46 82 -26 43 -56
94 -67 113 -24 44 -199 344 -202 348 -1 1 -67 -109 -145 -245z"/>
</g>
</svg>
